<svg width="5" height="5" viewBox="0 0 5 5" fill="none" xmlns="http://www.w3.org/2000/svg">
<g id="Group 2302">
<path id="Subtract" fill-rule="evenodd" clip-rule="evenodd" d="M3.89834 2.87421C4.14889 2.92752 4.3767 2.87662 4.57938 2.71996C4.6079 2.69792 4.63013 2.66657 4.64326 2.62988C4.65639 2.5932 4.65982 2.55283 4.65312 2.51388C4.64642 2.47494 4.6299 2.43917 4.60563 2.41111L2.87271 0.404553C2.85661 0.385897 2.8375 0.371096 2.81647 0.360999C2.79543 0.350901 2.77288 0.345703 2.7501 0.345703C2.72733 0.345703 2.70478 0.350901 2.68374 0.360999C2.66271 0.371096 2.64359 0.385896 2.6275 0.404553L0.894574 2.41111C0.870311 2.43917 0.853785 2.47494 0.847087 2.51388C0.840389 2.55283 0.843822 2.5932 0.856949 2.62988C0.870076 2.66657 0.892309 2.69792 0.920832 2.71996C1.12351 2.87662 1.35132 2.92752 1.60187 2.87421L1.73159 2.84661L2.6275 1.80923C2.64359 1.79058 2.66271 1.77578 2.68374 1.76568C2.70478 1.75558 2.72733 1.75039 2.7501 1.75039C2.77288 1.75039 2.79543 1.75558 2.81647 1.76568C2.8375 1.77578 2.85661 1.79058 2.87271 1.80923L3.76862 2.84661L3.89834 2.87421Z" fill="#1DF81F"/>
<path id="Vector" d="M4.57917 4.7268C4.37873 4.88173 4.15717 4.90181 3.93097 4.78772L3.53542 4.58821C3.04138 4.33903 2.45841 4.33903 1.96437 4.58821L1.56882 4.78772C1.34263 4.90181 1.12107 4.88173 0.920623 4.7268V4.7268C0.8921 4.70475 0.869867 4.6734 0.85674 4.63672C0.843613 4.60003 0.840181 4.55966 0.846878 4.52072C0.853576 4.48178 0.870102 4.44601 0.894365 4.41795L2.62729 2.41139C2.64339 2.39273 2.6625 2.37793 2.68353 2.36783C2.70457 2.35774 2.72712 2.35254 2.7499 2.35254C2.77267 2.35254 2.79522 2.35774 2.81626 2.36783C2.83729 2.37793 2.85641 2.39273 2.8725 2.41139L4.60543 4.41795C4.62969 4.44601 4.64621 4.48178 4.65291 4.52072C4.65961 4.55966 4.65618 4.60003 4.64305 4.63672C4.62992 4.6734 4.60769 4.70475 4.57917 4.7268V4.7268Z" fill="#1DF81F"/>
</g>
</svg>
