<svg width="7" height="8" viewBox="0 0 7 8" fill="none" xmlns="http://www.w3.org/2000/svg">
<g id="Group 2302">
<path id="Subtract" fill-rule="evenodd" clip-rule="evenodd" d="M2.0363 3.89118C1.62916 3.80454 1.25895 3.88726 0.929606 4.14183C0.883257 4.17765 0.847129 4.22859 0.825797 4.28821C0.804465 4.34782 0.798888 4.41342 0.809772 4.4767C0.820656 4.53999 0.847512 4.59811 0.886939 4.64371L3.70294 7.90437C3.7291 7.93469 3.76015 7.95874 3.79434 7.97514C3.82852 7.99155 3.86517 8 3.90217 8C3.93918 8 3.97582 7.99155 4.01001 7.97514C4.0442 7.95874 4.07525 7.93469 4.10141 7.90437L6.91741 4.64371C6.95684 4.59811 6.98369 4.53999 6.99458 4.47671C7.00546 4.41342 6.99988 4.34782 6.97855 4.28821C6.95722 4.2286 6.92109 4.17765 6.87474 4.14183C6.5454 3.88727 6.17519 3.80454 5.76805 3.89118L5.55726 3.93603L4.10141 5.62176C4.07525 5.65208 4.0442 5.67613 4.01001 5.69254C3.97582 5.70895 3.93918 5.71739 3.90217 5.71739C3.86517 5.71739 3.82852 5.70895 3.79434 5.69254C3.76015 5.67613 3.72909 5.65208 3.70294 5.62176L2.24709 3.93603L2.0363 3.89118Z" fill="#FF135B"/>
<path id="Vector" d="M0.929945 0.881085C1.25566 0.629326 1.6157 0.596691 1.98327 0.782085L2.72771 1.15757C3.46658 1.53024 4.33845 1.53024 5.07732 1.15757L5.82176 0.782085C6.18933 0.59669 6.54936 0.629327 6.87508 0.881085C6.92143 0.91691 6.95756 0.967854 6.97889 1.02747C7.00022 1.08708 7.0058 1.15268 6.99492 1.21596C6.98403 1.27925 6.95718 1.33737 6.91775 1.38297L4.10175 4.64363C4.07559 4.67394 4.04453 4.69799 4.01035 4.7144C3.97616 4.73081 3.93952 4.73926 3.90251 4.73926C3.86551 4.73926 3.82886 4.73081 3.79468 4.7144C3.76049 4.69799 3.72943 4.67394 3.70328 4.64363L0.887278 1.38297C0.847851 1.33737 0.820995 1.27925 0.810111 1.21596C0.799227 1.15268 0.804804 1.08708 0.826136 1.02747C0.847468 0.967853 0.883596 0.91691 0.929945 0.881085Z" fill="#FF135B"/>
</g>
</svg>
