<svg width="24" height="25" viewBox="0 0 24 25" fill="none" xmlns="http://www.w3.org/2000/svg">
<path d="M8.74941 13.5C8.74941 13.0858 8.41363 12.75 7.99941 12.75C7.5852 12.75 7.24941 13.0858 7.24941 13.5V17.5C7.24941 17.9142 7.5852 18.25 7.99941 18.25C8.41363 18.25 8.74941 17.9142 8.74941 17.5V13.5Z" fill="#98A2B3"/>
<path d="M15.9994 12.75C16.4136 12.75 16.7494 13.0858 16.7494 13.5V17.5C16.7494 17.9142 16.4136 18.25 15.9994 18.25C15.5852 18.25 15.2494 17.9142 15.2494 17.5V13.5C15.2494 13.0858 15.5852 12.75 15.9994 12.75Z" fill="#98A2B3"/>
<path d="M12.7494 13.5C12.7494 13.0858 12.4136 12.75 11.9994 12.75C11.5852 12.75 11.2494 13.0858 11.2494 13.5V17.5C11.2494 17.9142 11.5852 18.25 11.9994 18.25C12.4136 18.25 12.7494 17.9142 12.7494 17.5V13.5Z" fill="#98A2B3"/>
<path fill-rule="evenodd" clip-rule="evenodd" d="M17.2732 3.97298C16.7977 3.78712 16.2649 3.75574 15.5814 3.75077C15.3007 3.15912 14.6978 2.75 13.9994 2.75H9.99941C9.30101 2.75 8.69816 3.15912 8.41746 3.75077C7.73392 3.75574 7.20117 3.78712 6.72562 3.97298C6.15743 4.19505 5.66322 4.57255 5.2995 5.0623C4.93258 5.55639 4.76033 6.18968 4.52325 7.06133L3.89538 9.36426C3.50788 9.56269 3.1688 9.82992 2.88593 10.1922C2.26394 10.9888 2.15378 11.9377 2.26443 13.0261C2.3718 14.0822 2.7043 15.4121 3.12052 17.0769L3.14692 17.1825C3.41009 18.2353 3.62377 19.0901 3.87791 19.7572C4.14288 20.4527 4.47928 21.0227 5.0339 21.4558C5.58853 21.8888 6.22316 22.0769 6.96217 22.1653C7.67099 22.25 8.55208 22.25 9.63725 22.25H14.3615C15.4467 22.25 16.3277 22.25 17.0366 22.1653C17.7756 22.0769 18.4102 21.8888 18.9648 21.4558C19.5195 21.0227 19.8559 20.4527 20.1208 19.7572C20.375 19.0901 20.5887 18.2353 20.8518 17.1825L20.8782 17.077C21.2944 15.4122 21.6269 14.0822 21.7343 13.0261C21.845 11.9377 21.7348 10.9888 21.1128 10.1922C20.83 9.82995 20.4909 9.56274 20.1035 9.36431L19.4756 7.06133C19.2385 6.18968 19.0663 5.55639 18.6993 5.0623C18.3356 4.57255 17.8414 4.19505 17.2732 3.97298ZM7.27165 5.37007C7.49145 5.28416 7.75703 5.25888 8.41886 5.25219C8.70018 5.84225 9.30218 6.25 9.99941 6.25H13.9994C14.6967 6.25 15.2987 5.84225 15.58 5.25219C16.2418 5.25888 16.5074 5.28416 16.7272 5.37007C17.0331 5.48964 17.2992 5.69291 17.4951 5.95663C17.6712 6.19377 17.7745 6.52508 18.0654 7.59194L18.419 8.8887C17.3812 8.74996 16.0414 8.74998 14.3768 8.75H9.62197C7.95739 8.74998 6.61761 8.74996 5.57982 8.88868L5.93339 7.59195C6.22429 6.52508 6.32763 6.19376 6.50374 5.95662C6.69959 5.69291 6.9657 5.48964 7.27165 5.37007ZM9.99941 4.25C9.86134 4.25 9.74941 4.36193 9.74941 4.5C9.74941 4.63807 9.86134 4.75 9.99941 4.75H13.9994C14.1375 4.75 14.2494 4.63807 14.2494 4.5C14.2494 4.36193 14.1375 4.25 13.9994 4.25H9.99941ZM4.06824 11.1153C4.34708 10.7582 4.78805 10.5183 5.69922 10.3865C6.62985 10.2519 7.89169 10.25 9.68403 10.25H14.3147C16.1071 10.25 17.3689 10.2519 18.2995 10.3865C19.2107 10.5183 19.6517 10.7582 19.9305 11.1153C20.2093 11.4725 20.3351 11.9584 20.242 12.8744C20.1469 13.8099 19.8427 15.0345 19.408 16.7733C19.1307 17.8824 18.9376 18.6496 18.7191 19.2231C18.5078 19.7778 18.3009 20.0711 18.0417 20.2735C17.7826 20.4758 17.4478 20.6054 16.8585 20.6759C16.2491 20.7488 15.4579 20.75 14.3147 20.75H9.68403C8.54084 20.75 7.74966 20.7488 7.14027 20.6759C6.55091 20.6054 6.21619 20.4758 5.95702 20.2735C5.69786 20.0711 5.49095 19.7778 5.27964 19.2231C5.06114 18.6496 4.86804 17.8824 4.59078 16.7733C4.15607 15.0345 3.85185 13.8099 3.75674 12.8744C3.66362 11.9584 3.7894 11.4725 4.06824 11.1153Z" fill="#98A2B3"/>
</svg>
