<svg width="20" height="21" viewBox="0 0 20 21" fill="none" xmlns="http://www.w3.org/2000/svg">
<g id="solar:close-square-broken">
<path id="Vector" d="M12.0807 8.41602L7.91406 12.5827M7.91406 8.41602L12.0807 12.5827M18.3307 10.4993C18.3307 14.4277 18.3307 16.3918 17.1099 17.6118C15.8907 18.8327 13.9257 18.8327 9.9974 18.8327C6.06906 18.8327 4.1049 18.8327 2.88406 17.6118C1.66406 16.3927 1.66406 14.4277 1.66406 10.4993C1.66406 6.57102 1.66406 4.60685 2.88406 3.38602C4.10573 2.16602 6.06906 2.16602 9.9974 2.16602C13.9257 2.16602 15.8899 2.16602 17.1099 3.38602C17.9216 4.19768 18.1932 5.33852 18.2849 7.16602" stroke="#98A2B3" stroke-width="1.25" stroke-linecap="round"/>
</g>
</svg>
