<svg width="10" height="9" viewBox="0 0 10 9" fill="none" xmlns="http://www.w3.org/2000/svg">
<g id="Filter">
<path id="Filter_2" fill-rule="evenodd" clip-rule="evenodd" d="M3.43887 1.68928C3.43887 2.62261 2.66943 3.37911 1.71944 3.37911C0.769996 3.37911 0 2.62261 0 1.68928C0 0.756492 0.769996 0 1.71944 0C2.66943 0 3.43887 0.756492 3.43887 1.68928ZM9.24667 0.949163C9.66222 0.949163 10 1.28101 10 1.68928C10 2.09809 9.66222 2.42994 9.24667 2.42994H5.95891C5.5428 2.42994 5.20503 2.09809 5.20503 1.68928C5.20503 1.28101 5.5428 0.949163 5.95891 0.949163H9.24667ZM0.753885 6.47898H4.04164C4.45775 6.47898 4.79553 6.81083 4.79553 7.21964C4.79553 7.62791 4.45775 7.9603 4.04164 7.9603H0.753885C0.337776 7.9603 0 7.62791 0 7.21964C0 6.81083 0.337776 6.47898 0.753885 6.47898ZM8.28057 8.88889C9.23056 8.88889 10 8.1324 10 7.19961C10 6.26627 9.23056 5.50978 8.28057 5.50978C7.33113 5.50978 6.56113 6.26627 6.56113 7.19961C6.56113 8.1324 7.33113 8.88889 8.28057 8.88889Z" fill="#98A2B3"/>
</g>
</svg>
