<svg width="94" height="27" viewBox="0 0 94 27" fill="none" xmlns="http://www.w3.org/2000/svg">
<path d="M8.22574 11.9686C7.79513 11.8023 7.38798 11.5797 7.0147 11.3065C6.62016 11.0128 6.24874 10.6887 5.90379 10.3371L4.84578 9.26844C4.37346 8.65653 3.90239 8.07896 3.43258 7.53574C2.96278 6.99253 2.50872 6.41496 2.0704 5.80305C1.63208 5.19113 1.17802 4.61357 0.708215 4.07035C0.229252 3.50381 -0.0227679 2.77691 0.00161784 2.03233L0.606191 1.01332C0.748191 0.940346 0.883496 0.854774 1.0105 0.757615C1.1305 0.663092 1.26795 0.593678 1.41481 0.553432C1.58027 0.515696 1.74966 0.498395 1.91926 0.501909H2.41992L3.53272 1.22323C4.00379 1.83642 4.49186 2.44833 4.99693 3.05897C5.502 3.66961 5.98944 4.29807 6.45925 4.94433C6.9263 5.58559 7.43102 6.19797 7.97069 6.77817C8.52109 7.36433 9.13018 7.89128 9.78819 8.35057L10.1906 8.45171C10.4511 8.38902 10.6936 8.26622 10.8991 8.09295C11.1013 7.92312 11.3034 7.73802 11.5037 7.53383L12.1101 6.92128L12.7147 6.31064C13.119 5.83612 13.5063 5.34316 13.8766 4.83174C14.2469 4.32033 14.6336 3.828 15.0367 3.35475C15.4397 2.87896 15.8264 2.38663 16.1967 1.87776C16.5653 1.36827 17.0278 0.935441 17.5589 0.603046L18.7699 0.5L19.7788 1.11255C19.8513 1.25545 19.9353 1.39204 20.0301 1.52092C20.1248 1.64072 20.1936 1.77916 20.2322 1.92738C20.2696 2.0945 20.2867 2.26559 20.2833 2.43688V2.94066C19.8834 3.68664 19.4099 4.3899 18.8701 5.03974C18.3322 5.68473 17.8108 6.33036 17.3057 6.97662C16.8006 7.62289 16.2628 8.26851 15.6923 8.91351C15.1204 9.5585 14.5316 10.1869 13.9258 10.7989C13.5895 11.0698 13.2702 11.3077 12.9679 11.5126C12.6524 11.7215 12.3138 11.8925 11.959 12.0221C11.5887 12.1582 11.202 12.2771 10.799 12.3789C10.4031 12.48 9.99065 12.4969 9.58793 12.4285C9.1156 12.2924 8.66154 12.1391 8.22574 11.9686ZM1.51494 25.9829C1.37402 25.9811 1.2355 25.9458 1.11064 25.8798C0.980519 25.8152 0.861796 25.7295 0.759224 25.626L0.405925 25.2673C0.345234 25.1446 0.277741 25.0254 0.203769 24.9104C0.132793 24.8015 0.0816138 24.6807 0.0526269 24.5536C0.0168568 24.403 -0.000275696 24.2485 0.00161784 24.0937V23.6357C0.334457 22.8935 0.776514 22.2064 1.31279 21.5977C1.85187 20.987 2.37332 20.3586 2.87713 19.7123C3.38095 19.0661 3.88476 18.4376 4.38857 17.827C4.89239 17.2138 5.44721 16.6025 6.05305 15.9931C6.38934 15.7203 6.71052 15.4665 7.01281 15.2298C7.31111 14.9945 7.63201 14.7899 7.97069 14.6192C8.30514 14.4493 8.66212 14.3291 9.03058 14.2623C9.40089 14.1937 9.78757 14.1256 10.1906 14.0582C10.6681 14.127 11.1403 14.229 11.6038 14.3635C12.0697 14.4969 12.5121 14.7029 12.915 14.9741C13.3193 15.2464 13.706 15.5352 14.075 15.8405C14.4606 16.1631 14.8155 16.5215 15.1349 16.911C15.606 17.5229 16.094 18.1348 16.5991 18.7468C17.1042 19.3587 17.5916 19.9528 18.0614 20.5291C18.5325 21.1066 19.0199 21.7014 19.5238 22.3133C20.0226 22.9111 20.291 23.6707 20.2795 24.4524L19.4728 25.6756L18.2617 26.084C18.1175 26.0124 17.9643 25.9611 17.8064 25.9313C17.6495 25.9 17.4971 25.8487 17.353 25.7787C17.2224 25.713 17.1032 25.6267 16.9997 25.523L16.6464 25.1661C16.1753 24.5555 15.6878 23.9442 15.184 23.3323C14.6802 22.7204 14.1922 22.1091 13.7198 21.4985C13.2488 20.8865 12.7449 20.2746 12.2084 19.6627C11.6833 19.0638 11.0711 18.5491 10.3928 18.1361H9.88833C9.14946 18.6102 8.48575 19.1944 7.91967 19.8688C7.3491 20.5481 6.79428 21.2275 6.2552 21.9068L4.64174 23.9448C4.08924 24.6395 3.48137 25.2873 2.82423 25.8817L1.91737 26.0859C1.79309 26.0201 1.65523 25.9848 1.51494 25.9829Z" fill="#8B85FF"/>
<path d="M22.4029 25.8803L21.8984 24.9624V4.58029C21.965 4.312 22.0155 4.0399 22.0496 3.76547C22.086 3.48327 22.1557 3.2065 22.2574 2.9411L22.5597 2.12627C22.6588 1.85906 22.8134 1.61636 23.0131 1.41449C23.1505 1.27791 23.3033 1.15814 23.4684 1.05765C23.6438 0.952595 23.83 0.867476 24.0239 0.803852C24.2354 0.733406 24.4568 0.698592 24.6795 0.700806H25.3351C25.4692 0.769503 25.6204 0.838201 25.7885 0.90499C25.9632 0.976359 26.1319 1.06187 26.2929 1.1607C26.45 1.25425 26.602 1.35617 26.7483 1.46602C26.8907 1.5751 27.0252 1.69436 27.1507 1.82286C28.1449 3.16216 29.0049 4.59785 29.7183 6.10881C30.4248 7.60361 31.1497 9.08123 31.8928 10.5417C32.636 12.0021 33.3759 13.4798 34.1128 14.9746L36.3327 19.459L36.4272 19.3521V2.03277L37.0317 1.01376C37.1735 0.940338 37.3087 0.85479 37.436 0.758054C37.5556 0.663926 37.6923 0.59454 37.8385 0.553871C38.004 0.516356 38.1733 0.499058 38.3429 0.502348H38.8474L39.8581 1.1149L40.3626 2.03277V22.4149C40.2952 22.6837 40.2441 22.9565 40.2095 23.2316C40.1773 23.5099 40.1126 23.7834 40.0168 24.0464L39.7127 24.8612C39.6149 25.1297 39.4601 25.3733 39.2592 25.5749C39.1228 25.7119 38.9706 25.8317 38.8058 25.9318C38.6305 26.0368 38.4442 26.122 38.2503 26.1856C38.0388 26.2559 37.8174 26.2907 37.5947 26.2886H36.9392C36.805 26.2199 36.652 26.1531 36.4838 26.0844C36.3091 26.0131 36.1404 25.9276 35.9794 25.8287C35.8227 25.7356 35.6713 25.6337 35.526 25.5234C35.3829 25.4144 35.2478 25.2952 35.1217 25.1666C34.1234 23.8271 33.2596 22.3908 32.5428 20.8787C31.8374 19.3852 31.1144 17.9076 30.3738 16.4458C29.6332 14.9841 28.8933 13.5065 28.1539 12.013L25.934 7.52855L25.8338 7.62969V24.9624L25.2274 25.9833C25.0859 26.0554 24.9512 26.1403 24.825 26.2371C24.7048 26.3313 24.5674 26.4007 24.4207 26.4413C24.2552 26.479 24.0858 26.4963 23.9162 26.4928H23.4118L22.4029 25.8803Z" fill="#8B85FF"/>
<path d="M49.7964 26.1356C49.1515 25.9636 48.5259 25.7244 47.9298 25.4219C47.3382 25.1261 46.7795 24.7672 46.2635 24.3514C45.7352 23.9202 45.2459 23.4425 44.8011 22.924C44.188 22.1648 43.6796 21.3251 43.2897 20.428C42.8912 19.5311 42.5861 18.5949 42.379 17.6343C42.1782 16.6926 42.0599 15.7347 42.0257 14.7719C41.9917 13.8204 41.9754 12.8351 41.9766 11.8161L42.379 9.36967C42.5162 8.54507 42.7535 7.74071 43.0856 6.97481C43.4225 6.19253 43.8278 5.44216 44.2967 4.7326C44.7684 4.0182 45.3471 3.38216 46.0122 2.84725C46.5975 2.38478 47.2221 1.97545 47.8788 1.62405C48.5169 1.28493 49.1949 1.02847 49.8966 0.86075C50.6085 0.690526 51.3346 0.588303 52.0655 0.555429C52.8061 0.521081 53.5461 0.503906 54.2854 0.503906C54.9335 0.567587 55.5751 0.686967 56.2031 0.86075C56.8296 1.03892 57.4377 1.27793 58.0187 1.57444C58.6214 1.8782 59.1955 2.23651 59.7342 2.64497C60.2859 3.06623 60.7924 3.54462 61.2456 4.07235C61.858 4.83209 62.3664 5.67163 62.757 6.56835C63.1538 7.46885 63.4576 8.40821 63.6639 9.37158C63.8646 10.3134 63.9828 11.2712 64.0172 12.234C64.0512 13.1868 64.0682 14.1721 64.0682 15.1899L63.6696 17.6343C63.5324 18.4589 63.2951 19.2633 62.963 20.0292C62.6267 20.8114 62.2221 21.5618 61.7538 22.2714C61.2816 22.9854 60.7029 23.6213 60.0383 24.1567C59.4866 24.641 58.8758 25.0521 58.2208 25.3799C57.5596 25.7146 56.8622 25.9708 56.1426 26.1432C55.4307 26.3136 54.7046 26.4158 53.9737 26.4486C53.2331 26.4829 52.4931 26.5001 51.7538 26.5001C51.0929 26.4303 50.4385 26.3084 49.7964 26.1356ZM57.6163 20.9375C57.8932 20.6907 58.1462 20.4179 58.372 20.1227C58.5932 19.8406 58.7797 19.5324 58.9274 19.2048C59.0758 18.8722 59.2442 18.5491 59.4319 18.2373C59.566 17.7603 59.685 17.2832 59.7852 16.81C59.8853 16.3367 59.9741 15.8406 60.0383 15.3311C60.1034 14.8415 60.1369 14.3481 60.1385 13.8541V12.3275C60.0705 11.7836 59.9873 11.2398 59.8853 10.6959C59.7871 10.1606 59.6526 9.63264 59.4829 9.11587C59.3068 8.58946 59.0875 8.07881 58.8273 7.58926C58.5595 7.08326 58.2195 6.61971 57.8184 6.21341C57.4387 5.89185 57.0337 5.60211 56.6074 5.34706C56.1799 5.10042 55.7218 4.91239 55.2452 4.78794C54.7663 4.65557 54.276 4.56994 53.781 4.53224C53.3099 4.49789 52.8061 4.48071 52.2695 4.48071C51.8665 4.54941 51.4798 4.61747 51.1095 4.6849C50.7407 4.7518 50.3832 4.87131 50.0477 5.03983C49.7145 5.20545 49.3921 5.39219 49.0823 5.59895C48.78 5.80314 48.4588 6.03976 48.1225 6.31264C47.5955 6.84138 47.1684 7.46284 46.8624 8.14647C46.5626 8.81758 46.3425 9.52218 46.2068 10.2456C46.0703 10.9687 45.9857 11.7008 45.9536 12.4362C45.9196 13.1843 45.9026 13.9317 45.9026 14.6784C45.9706 15.2229 46.055 15.7668 46.1558 16.31C46.2544 16.8454 46.3895 17.3734 46.5601 17.89C46.7353 18.4168 46.9547 18.9275 47.2157 19.4166C47.4822 19.9235 47.8223 20.3872 48.2245 20.7925C48.6036 21.1149 49.0087 21.4047 49.4356 21.6588C49.8629 21.9058 50.321 22.0939 50.7978 22.218C51.276 22.3502 51.7657 22.4358 52.2601 22.4737C52.7312 22.508 53.235 22.5252 53.7715 22.5252C54.0376 22.4568 54.3076 22.4058 54.5801 22.3725C54.8356 22.3408 55.0883 22.2891 55.3359 22.218C55.5765 22.1487 55.8126 22.0639 56.0425 21.9642C56.2715 21.866 56.4909 21.7465 56.6981 21.6073C57.0229 21.4116 57.3301 21.1875 57.6163 20.9375Z" fill="#8B85FF"/>
<path d="M66.6796 23.3454C66.6037 23.2693 66.544 23.1784 66.5039 23.0783L66.3868 22.7825C66.3465 22.6786 66.3267 22.5678 66.3282 22.4562V22.0994L66.6796 21.4468C66.7553 21.3706 66.8452 21.3103 66.9441 21.2693L67.2389 21.151C67.3417 21.1104 67.4515 21.0903 67.5619 21.0919H67.9133L68.5614 21.4468C68.6368 21.5232 68.6966 21.614 68.7371 21.714L68.8542 22.0116C68.8948 22.1154 68.9147 22.2263 68.9128 22.3379V22.6928L68.5614 23.3454C68.4859 23.4224 68.396 23.4834 68.2969 23.5248L68.0021 23.6431C67.8992 23.6838 67.7895 23.7038 67.6791 23.7023H67.3258L66.6796 23.3454Z" fill="#49DFBA"/>
<path d="M75.1945 26.3125L74.7241 26.0759C74.5611 25.9914 74.4125 25.8813 74.2839 25.7496L73.906 25.3679C73.246 24.4312 72.7489 23.3877 72.4361 22.2823C72.1225 21.1729 71.829 20.0751 71.5557 18.9886C71.2824 17.9022 70.9788 16.8043 70.6451 15.695C70.315 14.604 70.05 13.4939 69.8516 12.3708L70.203 11.7773L70.4391 11.659L70.6734 11.5407C70.7557 11.5001 70.8463 11.4798 70.9379 11.4815H71.2024L71.8486 11.8365C72.24 12.8649 72.5737 13.9149 72.848 14.9813C73.1226 16.0499 73.4066 17.1084 73.7001 18.1566C73.9935 19.2049 74.2776 20.2729 74.5521 21.3606C74.8092 22.419 75.3354 23.3912 76.0787 24.181C76.1958 24.1008 76.3035 24.0226 76.4018 23.9425C76.5012 23.8628 76.5819 23.7617 76.6379 23.6467C76.6959 23.5284 76.7544 23.4196 76.8136 23.3204C76.8722 23.2211 76.9402 23.1124 77.0196 22.9941C77.3332 22.0845 77.6172 21.1545 77.8716 20.2042C78.1261 19.2539 78.3906 18.3042 78.6652 17.3552C78.9397 16.4061 79.1916 15.4666 79.4209 14.5367C79.6614 13.5926 79.9773 12.6698 80.3655 11.7773C80.4475 11.7342 80.5258 11.6844 80.5998 11.6285C80.6691 11.5734 80.7488 11.5331 80.8341 11.5102C80.9208 11.4902 81.0096 11.4806 81.0986 11.4815H81.3631L82.0678 11.9548C82.1029 12.0267 82.1427 12.0962 82.1868 12.1628C82.2273 12.2266 82.2567 12.297 82.2737 12.3708C82.294 12.448 82.3041 12.5275 82.304 12.6074V12.846L81.3593 16.1682C81.0482 17.2725 80.7434 18.3888 80.4449 19.5172C80.1464 20.6456 79.8315 21.7639 79.5002 22.8719C79.1664 23.9844 78.5766 25.0012 77.7791 25.8393C77.6216 25.9589 77.4648 26.0676 77.3086 26.1656C77.1524 26.2649 76.9849 26.3449 76.8099 26.4041C76.6271 26.4652 76.4356 26.4955 76.2431 26.4938H75.6649C75.502 26.4511 75.3442 26.3903 75.1945 26.3125Z" fill="#49DFBA"/>
<path d="M83.5447 26.1353L83.25 25.601V13.7316C83.2896 13.5753 83.3193 13.4166 83.3388 13.2565C83.3593 13.0946 83.3986 12.9358 83.4559 12.7832L83.6335 12.3081C83.6902 12.1514 83.7805 12.0093 83.898 11.8921C83.9771 11.8124 84.0652 11.7426 84.1606 11.6841C84.2625 11.623 84.3709 11.5737 84.4837 11.5371C84.6057 11.4971 84.7333 11.4772 84.8616 11.478H85.2394C85.3169 11.5161 85.4057 11.5562 85.5039 11.5963C85.6055 11.6368 85.7035 11.6859 85.7968 11.7432C85.895 11.8043 85.9857 11.8635 86.0613 11.9226C86.145 11.9859 86.224 12.0554 86.2974 12.1306C86.8774 12.9091 87.3793 13.7439 87.7957 14.6228C88.2063 15.493 88.6269 16.3536 89.0577 17.2047C89.4885 18.0557 89.9192 18.9157 90.35 19.7846L91.6536 22.4047L91.7122 22.3455V12.2489L92.0636 11.6555C92.1464 11.6128 92.2254 11.563 92.2998 11.5066C92.3691 11.4515 92.4488 11.4113 92.534 11.3883C92.6306 11.3656 92.7296 11.3554 92.8288 11.3578H93.1216L93.7092 11.7146L94.0039 12.2489V24.1221C93.9643 24.2778 93.9346 24.4358 93.9151 24.5953C93.8949 24.7579 93.8556 24.9174 93.798 25.0705L93.6204 25.5457C93.5633 25.7021 93.473 25.8441 93.3559 25.9617C93.2765 26.0411 93.1876 26.1104 93.0914 26.1677C92.9899 26.2302 92.8815 26.2802 92.7683 26.3166C92.6464 26.3569 92.5187 26.3769 92.3904 26.3757H92.0126C91.9351 26.3376 91.8463 26.2975 91.7481 26.2574C91.6468 26.2155 91.5489 26.1657 91.4552 26.1086C91.3639 26.0543 91.2757 25.9951 91.1907 25.9311C91.107 25.8679 91.028 25.7983 90.9546 25.7231C90.3746 24.9446 89.8727 24.1098 89.4563 23.2309C89.047 22.3608 88.6263 21.5001 88.1943 20.6491C87.7623 19.798 87.3315 18.9374 86.902 18.0672L85.6078 15.4567L85.5493 15.5159V25.6048L85.1979 26.1983C85.115 26.2409 85.036 26.2907 84.9617 26.3471C84.8924 26.4022 84.8127 26.4425 84.7274 26.4654C84.6307 26.4872 84.5318 26.4974 84.4327 26.496H84.1399L83.5447 26.1353Z" fill="#49DFBA"/>
</svg>
