<svg width="24" height="25" viewBox="0 0 24 25" fill="none" xmlns="http://www.w3.org/2000/svg">
<path d="M11.9426 1.75H13.5C13.9142 1.75 14.25 2.08579 14.25 2.5C14.25 2.91421 13.9142 3.25 13.5 3.25H12C9.62178 3.25 7.91356 3.25159 6.61358 3.42637C5.33517 3.59825 4.56445 3.92514 3.9948 4.4948C3.42514 5.06445 3.09825 5.83517 2.92637 7.11358C2.75159 8.41356 2.75 10.1218 2.75 12.5C2.75 14.8782 2.75159 16.5864 2.92637 17.8864C3.09825 19.1648 3.42514 19.9355 3.9948 20.5052C4.56445 21.0749 5.33517 21.4018 6.61358 21.5736C7.91356 21.7484 9.62178 21.75 12 21.75C14.3782 21.75 16.0864 21.7484 17.3864 21.5736C18.6648 21.4018 19.4355 21.0749 20.0052 20.5052C20.5749 19.9355 20.9018 19.1648 21.0736 17.8864C21.2484 16.5864 21.25 14.8782 21.25 12.5V11C21.25 10.5858 21.5858 10.25 22 10.25C22.4142 10.25 22.75 10.5858 22.75 11V12.5574C22.75 14.8658 22.75 16.6748 22.5603 18.0863C22.366 19.531 21.9607 20.6711 21.0659 21.5659C20.1711 22.4607 19.031 22.866 17.5863 23.0603C16.1748 23.25 14.3658 23.25 12.0574 23.25H11.9426C9.63423 23.25 7.82519 23.25 6.41371 23.0603C4.96897 22.866 3.82895 22.4607 2.93414 21.5659C2.03933 20.6711 1.63399 19.531 1.43975 18.0863C1.24998 16.6748 1.24999 14.8658 1.25 12.5574V12.4426C1.24999 10.1342 1.24998 8.32519 1.43975 6.91371C1.63399 5.46897 2.03933 4.32895 2.93414 3.43414C3.82895 2.53933 4.96897 2.13399 6.41371 1.93975C7.82519 1.74998 9.63423 1.74999 11.9426 1.75Z" fill="#98A2B3"/>
<path fill-rule="evenodd" clip-rule="evenodd" d="M15.25 5.5C15.25 3.42893 16.9289 1.75 19 1.75C21.0711 1.75 22.75 3.42893 22.75 5.5C22.75 7.57107 21.0711 9.25 19 9.25C16.9289 9.25 15.25 7.57107 15.25 5.5ZM19 3.25C17.7574 3.25 16.75 4.25736 16.75 5.5C16.75 6.74264 17.7574 7.75 19 7.75C20.2426 7.75 21.25 6.74264 21.25 5.5C21.25 4.25736 20.2426 3.25 19 3.25Z" fill="#98A2B3"/>
<path d="M13.75 10.5C13.75 10.9142 14.0858 11.25 14.5 11.25H15.1893L13.1768 13.2626C13.0791 13.3602 12.9209 13.3602 12.8232 13.2626L11.2374 11.6768C10.554 10.9934 9.44598 10.9934 8.76256 11.6768L6.46967 13.9697C6.17678 14.2626 6.17678 14.7374 6.46967 15.0303C6.76256 15.3232 7.23744 15.3232 7.53033 15.0303L9.82322 12.7374C9.92085 12.6398 10.0791 12.6398 10.1768 12.7374L11.7626 14.3232C12.446 15.0066 13.554 15.0066 14.2374 14.3232L16.25 12.3107V13C16.25 13.4142 16.5858 13.75 17 13.75C17.4142 13.75 17.75 13.4142 17.75 13V10.5C17.75 10.0858 17.4142 9.75 17 9.75H14.5C14.0858 9.75 13.75 10.0858 13.75 10.5Z" fill="#98A2B3"/>
</svg>
