<svg width="24" height="25" viewBox="0 0 24 25" fill="none" xmlns="http://www.w3.org/2000/svg">
<path fill-rule="evenodd" clip-rule="evenodd" d="M6.448 2.25C5.54954 2.24997 4.8003 2.24995 4.20552 2.32991C3.57773 2.41432 3.01093 2.59999 2.55546 3.05546C2.09999 3.51093 1.91432 4.07773 1.82991 4.70552C1.74995 5.3003 1.74997 6.04951 1.75 6.94798V7.052C1.74997 7.95047 1.74995 8.69971 1.82991 9.29448C1.91432 9.92228 2.09999 10.4891 2.55546 10.9445C3.01093 11.4 3.57773 11.5857 4.20552 11.6701C4.8003 11.7501 5.54951 11.75 6.44798 11.75H6.552C7.45047 11.75 8.19971 11.7501 8.79448 11.6701C9.42228 11.5857 9.98908 11.4 10.4445 10.9445C10.9 10.4891 11.0857 9.92228 11.1701 9.29448C11.2501 8.69971 11.25 7.9505 11.25 7.05203V6.94801C11.25 6.04954 11.2501 5.3003 11.1701 4.70552C11.0857 4.07773 10.9 3.51093 10.4445 3.05546C9.98908 2.59999 9.42228 2.41432 8.79448 2.32991C8.19971 2.24995 7.4505 2.24997 6.55203 2.25H6.448ZM3.61612 4.11612C3.74644 3.9858 3.94393 3.87858 4.4054 3.81654C4.88843 3.7516 5.53599 3.75 6.5 3.75C7.46401 3.75 8.11157 3.7516 8.59461 3.81654C9.05607 3.87858 9.25357 3.9858 9.38389 4.11612C9.5142 4.24644 9.62143 4.44393 9.68347 4.9054C9.74841 5.38843 9.75 6.03599 9.75 7C9.75 7.96401 9.74841 8.61157 9.68347 9.09461C9.62143 9.55607 9.5142 9.75357 9.38389 9.88389C9.25357 10.0142 9.05607 10.1214 8.59461 10.1835C8.11157 10.2484 7.46401 10.25 6.5 10.25C5.53599 10.25 4.88843 10.2484 4.4054 10.1835C3.94393 10.1214 3.74644 10.0142 3.61612 9.88389C3.4858 9.75357 3.37858 9.55607 3.31654 9.09461C3.2516 8.61157 3.25 7.96401 3.25 7C3.25 6.03599 3.2516 5.38843 3.31654 4.9054C3.37858 4.44393 3.4858 4.24644 3.61612 4.11612Z" fill="#98A2B3"/>
<path fill-rule="evenodd" clip-rule="evenodd" d="M17.448 13.25C16.5495 13.25 15.8003 13.2499 15.2055 13.3299C14.5777 13.4143 14.0109 13.6 13.5555 14.0555C13.1 14.5109 12.9143 15.0777 12.8299 15.7055C12.7499 16.3003 12.75 17.0495 12.75 17.948V18.052C12.75 18.9505 12.7499 19.6997 12.8299 20.2945C12.9143 20.9223 13.1 21.4891 13.5555 21.9445C14.0109 22.4 14.5777 22.5857 15.2055 22.6701C15.8003 22.7501 16.5495 22.75 17.4479 22.75H17.552C18.4504 22.75 19.1997 22.7501 19.7945 22.6701C20.4223 22.5857 20.9891 22.4 21.4445 21.9445C21.9 21.4891 22.0857 20.9223 22.1701 20.2945C22.2501 19.6997 22.25 18.9505 22.25 18.0521V17.948C22.25 17.0496 22.2501 16.3003 22.1701 15.7055C22.0857 15.0777 21.9 14.5109 21.4445 14.0555C20.9891 13.6 20.4223 13.4143 19.7945 13.3299C19.1997 13.2499 18.4505 13.25 17.552 13.25H17.448ZM14.6161 15.1161C14.7464 14.9858 14.9439 14.8786 15.4054 14.8165C15.8884 14.7516 16.536 14.75 17.5 14.75C18.464 14.75 19.1116 14.7516 19.5946 14.8165C20.0561 14.8786 20.2536 14.9858 20.3839 15.1161C20.5142 15.2464 20.6214 15.4439 20.6835 15.9054C20.7484 16.3884 20.75 17.036 20.75 18C20.75 18.964 20.7484 19.6116 20.6835 20.0946C20.6214 20.5561 20.5142 20.7536 20.3839 20.8839C20.2536 21.0142 20.0561 21.1214 19.5946 21.1835C19.1116 21.2484 18.464 21.25 17.5 21.25C16.536 21.25 15.8884 21.2484 15.4054 21.1835C14.9439 21.1214 14.7464 21.0142 14.6161 20.8839C14.4858 20.7536 14.3786 20.5561 14.3165 20.0946C14.2516 19.6116 14.25 18.964 14.25 18C14.25 17.036 14.2516 16.3884 14.3165 15.9054C14.3786 15.4439 14.4858 15.2464 14.6161 15.1161Z" fill="#98A2B3"/>
<path fill-rule="evenodd" clip-rule="evenodd" d="M6.448 13.25H6.552C7.45048 13.25 8.1997 13.2499 8.79448 13.3299C9.42228 13.4143 9.98908 13.6 10.4445 14.0555C10.9 14.5109 11.0857 15.0777 11.1701 15.7055C11.2501 16.3003 11.25 17.0495 11.25 17.948V18.052C11.25 18.9505 11.2501 19.6997 11.1701 20.2945C11.0857 20.9223 10.9 21.4891 10.4445 21.9445C9.98908 22.4 9.42228 22.5857 8.79448 22.6701C8.19971 22.7501 7.45051 22.75 6.55206 22.75H6.44801C5.54955 22.75 4.80029 22.7501 4.20552 22.6701C3.57773 22.5857 3.01093 22.4 2.55546 21.9445C2.09999 21.4891 1.91432 20.9223 1.82991 20.2945C1.74995 19.6997 1.74997 18.9505 1.75 18.052V17.948C1.74997 17.0495 1.74995 16.3003 1.82991 15.7055C1.91432 15.0777 2.09999 14.5109 2.55546 14.0555C3.01093 13.6 3.57773 13.4143 4.20552 13.3299C4.8003 13.2499 5.54952 13.25 6.448 13.25ZM4.4054 14.8165C3.94393 14.8786 3.74644 14.9858 3.61612 15.1161C3.4858 15.2464 3.37858 15.4439 3.31654 15.9054C3.2516 16.3884 3.25 17.036 3.25 18C3.25 18.964 3.2516 19.6116 3.31654 20.0946C3.37858 20.5561 3.4858 20.7536 3.61612 20.8839C3.74644 21.0142 3.94393 21.1214 4.4054 21.1835C4.88843 21.2484 5.53599 21.25 6.5 21.25C7.46401 21.25 8.11157 21.2484 8.59461 21.1835C9.05607 21.1214 9.25357 21.0142 9.38389 20.8839C9.5142 20.7536 9.62143 20.5561 9.68347 20.0946C9.74841 19.6116 9.75 18.964 9.75 18C9.75 17.036 9.74841 16.3884 9.68347 15.9054C9.62143 15.4439 9.5142 15.2464 9.38389 15.1161C9.25357 14.9858 9.05607 14.8786 8.59461 14.8165C8.11157 14.7516 7.46401 14.75 6.5 14.75C5.53599 14.75 4.88843 14.7516 4.4054 14.8165Z" fill="#98A2B3"/>
<path fill-rule="evenodd" clip-rule="evenodd" d="M17.448 2.25C16.5495 2.24997 15.8003 2.24995 15.2055 2.32991C14.5777 2.41432 14.0109 2.59999 13.5555 3.05546C13.1 3.51093 12.9143 4.07773 12.8299 4.70552C12.7499 5.3003 12.75 6.04952 12.75 6.948V7.052C12.75 7.95048 12.7499 8.6997 12.8299 9.29448C12.9143 9.92228 13.1 10.4891 13.5555 10.9445C14.0109 11.4 14.5777 11.5857 15.2055 11.6701C15.8003 11.7501 16.5495 11.75 17.448 11.75H17.552C18.4505 11.75 19.1997 11.7501 19.7945 11.6701C20.4223 11.5857 20.9891 11.4 21.4445 10.9445C21.9 10.4891 22.0857 9.92228 22.1701 9.29448C22.2501 8.69971 22.25 7.9505 22.25 7.05203V6.94801C22.25 6.04954 22.2501 5.3003 22.1701 4.70552C22.0857 4.07773 21.9 3.51093 21.4445 3.05546C20.9891 2.59999 20.4223 2.41432 19.7945 2.32991C19.1997 2.24995 18.4505 2.24997 17.552 2.25H17.448ZM14.6161 4.11612C14.7464 3.9858 14.9439 3.87858 15.4054 3.81654C15.8884 3.7516 16.536 3.75 17.5 3.75C18.464 3.75 19.1116 3.7516 19.5946 3.81654C20.0561 3.87858 20.2536 3.9858 20.3839 4.11612C20.5142 4.24644 20.6214 4.44393 20.6835 4.9054C20.7484 5.38843 20.75 6.03599 20.75 7C20.75 7.96401 20.7484 8.61157 20.6835 9.09461C20.6214 9.55607 20.5142 9.75357 20.3839 9.88389C20.2536 10.0142 20.0561 10.1214 19.5946 10.1835C19.1116 10.2484 18.464 10.25 17.5 10.25C16.536 10.25 15.8884 10.2484 15.4054 10.1835C14.9439 10.1214 14.7464 10.0142 14.6161 9.88389C14.4858 9.75357 14.3786 9.55607 14.3165 9.09461C14.2516 8.61157 14.25 7.96401 14.25 7C14.25 6.03599 14.2516 5.38843 14.3165 4.9054C14.3786 4.44393 14.4858 4.24644 14.6161 4.11612Z" fill="#98A2B3"/>
</svg>
