<svg width="20" height="21" viewBox="0 0 20 21" fill="none" xmlns="http://www.w3.org/2000/svg">
<g id="solar:scale-broken">
<g id="Group">
<path id="Vector" d="M2.29688 10.4993C2.29688 14.4263 2.29687 16.3889 3.51734 17.6093C4.73698 18.8289 6.70056 18.8289 10.6277 18.8289C14.5549 18.8289 16.5185 18.8289 17.7389 17.6093C18.8694 16.4789 18.9519 14.7103 18.9586 11.3315M9.79463 2.16895C6.41648 2.17478 4.64784 2.25808 3.51734 3.38851C2.83671 4.06827 2.53597 4.97961 2.40268 6.33413" stroke="#98A2B3" stroke-width="1.24959" stroke-linecap="round"/>
<path id="Vector_2" d="M11.4581 9.66628L18.9558 2.16895M18.9558 2.16895H14.5038M18.9558 2.16895V6.6207M18.1228 3.00198L10.625 10.4993M10.625 10.4993H13.9573M10.625 10.4993V7.16717" stroke="#98A2B3" stroke-width="1.24959" stroke-linecap="round" stroke-linejoin="round"/>
</g>
</g>
</svg>
