<svg width="24" height="24" viewBox="0 0 24 24" fill="none" xmlns="http://www.w3.org/2000/svg">
<path fill-rule="evenodd" clip-rule="evenodd" d="M11.9985 8.25C9.92747 8.25 8.24854 9.92893 8.24854 12C8.24854 14.0711 9.92747 15.75 11.9985 15.75C14.0696 15.75 15.7485 14.0711 15.7485 12C15.7485 9.92893 14.0696 8.25 11.9985 8.25ZM9.74854 12C9.74854 10.7574 10.7559 9.75 11.9985 9.75C13.2412 9.75 14.2485 10.7574 14.2485 12C14.2485 13.2426 13.2412 14.25 11.9985 14.25C10.7559 14.25 9.74854 13.2426 9.74854 12Z" fill="#98A2B3"/>
<path fill-rule="evenodd" clip-rule="evenodd" d="M11.9733 1.25C11.5288 1.24999 11.1578 1.24999 10.8532 1.27077C10.5361 1.29241 10.2365 1.33905 9.94615 1.45933C9.27232 1.73844 8.73697 2.27379 8.45786 2.94762C8.31255 3.29842 8.2732 3.66812 8.25817 4.06996C8.2461 4.39299 8.08307 4.66251 7.84249 4.80141C7.6019 4.94031 7.28698 4.94673 7.0012 4.79568C6.64567 4.60777 6.30582 4.45699 5.92937 4.40743C5.20626 4.31223 4.47496 4.50819 3.89633 4.95219C3.64696 5.14353 3.45681 5.3796 3.27952 5.6434C3.10921 5.89681 2.9237 6.21815 2.70148 6.60307L2.67622 6.64681C2.45399 7.03172 2.26846 7.35304 2.13416 7.62723C1.99434 7.91267 1.88497 8.19539 1.84395 8.50701C1.74875 9.23012 1.9447 9.96142 2.3887 10.5401C2.61982 10.8412 2.92026 11.0602 3.2607 11.2741C3.53448 11.4461 3.68641 11.7221 3.6864 12C3.68638 12.2778 3.53446 12.5538 3.26071 12.7258C2.92023 12.9397 2.61974 13.1587 2.3886 13.4599C1.9446 14.0385 1.74865 14.7698 1.84385 15.4929C1.88488 15.8045 1.99425 16.0873 2.13406 16.3727C2.26836 16.6469 2.45388 16.9682 2.67611 17.3531L2.70138 17.3969C2.9236 17.7818 3.10912 18.1031 3.27942 18.3565C3.45671 18.6203 3.64687 18.8564 3.89623 19.0477C4.47486 19.4917 5.20616 19.6877 5.92927 19.5925C6.3057 19.5429 6.64553 19.3922 7.00104 19.2043C7.28686 19.0532 7.60182 19.0596 7.84244 19.1986C8.08305 19.3375 8.24609 19.607 8.25818 19.9301C8.27321 20.3319 8.31256 20.7016 8.45786 21.0524C8.73697 21.7262 9.27232 22.2616 9.94615 22.5407C10.2365 22.661 10.5361 22.7076 10.8532 22.7292C11.1578 22.75 11.5288 22.75 11.9733 22.75H12.0238C12.4682 22.75 12.8393 22.75 13.1439 22.7292C13.461 22.7076 13.7605 22.661 14.0509 22.5407C14.7247 22.2616 15.2601 21.7262 15.5392 21.0524C15.6845 20.7016 15.7239 20.3319 15.7389 19.93C15.751 19.607 15.914 19.3375 16.1546 19.1985C16.3952 19.0596 16.7101 19.0532 16.996 19.2042C17.3514 19.3921 17.6913 19.5429 18.0677 19.5924C18.7908 19.6876 19.5221 19.4917 20.1007 19.0477C20.3501 18.8563 20.5402 18.6203 20.7175 18.3565C20.8878 18.1031 21.0733 17.7818 21.2955 17.3969L21.3208 17.3531C21.543 16.9682 21.7286 16.6468 21.8629 16.3726C22.0027 16.0872 22.1121 15.8045 22.1531 15.4929C22.2483 14.7697 22.0524 14.0384 21.6084 13.4598C21.3772 13.1586 21.0768 12.9397 20.7363 12.7258C20.4625 12.5538 20.3106 12.2778 20.3107 11.9999C20.3107 11.7221 20.4626 11.4462 20.7363 11.2742C21.0768 11.0603 21.3773 10.8414 21.6085 10.5401C22.0524 9.96149 22.2484 9.23019 22.1532 8.50708C22.1122 8.19546 22.0028 7.91274 21.863 7.6273C21.7287 7.35313 21.5432 7.03183 21.321 6.64695L21.2957 6.60318C21.0735 6.21825 20.8879 5.89688 20.7176 5.64347C20.5403 5.37967 20.3502 5.1436 20.1008 4.95225C19.5222 4.50826 18.7909 4.3123 18.0678 4.4075C17.6913 4.45706 17.3515 4.60782 16.996 4.79572C16.7102 4.94679 16.3952 4.94036 16.1546 4.80144C15.914 4.66253 15.751 4.39297 15.7389 4.06991C15.7238 3.66808 15.6845 3.2984 15.5392 2.94762C15.2601 2.27379 14.7247 1.73844 14.0509 1.45933C13.7605 1.33905 13.461 1.29241 13.1439 1.27077C12.8393 1.24999 12.4682 1.24999 12.0238 1.25H11.9733ZM10.5202 2.84515C10.5973 2.81319 10.7145 2.78372 10.9553 2.76729C11.2027 2.75041 11.5223 2.75 11.9985 2.75C12.4747 2.75 12.7943 2.75041 13.0418 2.76729C13.2825 2.78372 13.3997 2.81319 13.4769 2.84515C13.7832 2.97202 14.0265 3.21536 14.1534 3.52165C14.1934 3.61826 14.2266 3.76887 14.2399 4.12597C14.2696 4.91835 14.6785 5.68129 15.4046 6.10048C16.1307 6.51968 16.9959 6.4924 17.6969 6.12188C18.0129 5.9549 18.1599 5.90832 18.2636 5.89467C18.5923 5.8514 18.9247 5.94047 19.1877 6.14228C19.2539 6.19312 19.3381 6.27989 19.4727 6.48016C19.611 6.68603 19.7712 6.9626 20.0093 7.375C20.2474 7.78741 20.4068 8.06438 20.5159 8.28713C20.6221 8.50382 20.6551 8.62007 20.666 8.70287C20.7093 9.03155 20.6202 9.36397 20.4184 9.62698C20.3548 9.70995 20.2409 9.81399 19.9383 10.0041C19.2669 10.426 18.8107 11.1616 18.8107 11.9999C18.8106 12.8383 19.2668 13.574 19.9383 13.9959C20.2408 14.186 20.3547 14.29 20.4183 14.373C20.6201 14.636 20.7092 14.9684 20.6659 15.2971C20.655 15.3799 20.622 15.4961 20.5158 15.7128C20.4067 15.9355 20.2473 16.2125 20.0092 16.6249C19.7711 17.0373 19.6109 17.3139 19.4726 17.5198C19.338 17.72 19.2538 17.8068 19.1876 17.8576C18.9246 18.0595 18.5922 18.1485 18.2635 18.1053C18.1598 18.0916 18.0128 18.045 17.6969 17.8781C16.9958 17.5075 16.1305 17.4803 15.4045 17.8995C14.6785 18.3187 14.2696 19.0816 14.2399 19.874C14.2266 20.2311 14.1934 20.3817 14.1534 20.4784C14.0265 20.7846 13.7832 21.028 13.4769 21.1549C13.3997 21.1868 13.2825 21.2163 13.0418 21.2327C12.7943 21.2496 12.4747 21.25 11.9985 21.25C11.5223 21.25 11.2027 21.2496 10.9553 21.2327C10.7145 21.2163 10.5973 21.1868 10.5202 21.1549C10.2139 21.028 9.97054 20.7846 9.84368 20.4784C9.80366 20.3817 9.77048 20.2311 9.75713 19.874C9.72749 19.0817 9.3185 18.3187 8.59244 17.8995C7.86637 17.4803 7.00115 17.5076 6.30012 17.8781C5.98418 18.0451 5.83716 18.0917 5.73348 18.1053C5.4048 18.1486 5.07238 18.0595 4.80937 17.8577C4.74312 17.8069 4.65898 17.7201 4.52439 17.5198C4.38604 17.314 4.22589 17.0374 3.98779 16.625C3.74969 16.2126 3.59025 15.9356 3.48114 15.7129C3.375 15.4962 3.34192 15.3799 3.33102 15.2971C3.28775 14.9684 3.37681 14.636 3.57863 14.373C3.64229 14.2901 3.75614 14.186 4.05873 13.9959C4.73012 13.5741 5.18635 12.8384 5.1864 12.0001C5.18644 11.1616 4.73019 10.4259 4.05875 10.004C3.75622 9.81389 3.64238 9.70987 3.57873 9.62691C3.37691 9.3639 3.28784 9.03149 3.33112 8.7028C3.34202 8.62001 3.3751 8.50375 3.48123 8.28707C3.59034 8.06431 3.74979 7.78734 3.98789 7.37493C4.22599 6.96253 4.38614 6.68596 4.52449 6.48009C4.65908 6.27983 4.74322 6.19305 4.80947 6.14222C5.07248 5.9404 5.40489 5.85133 5.73358 5.8946C5.83727 5.90825 5.9843 5.95483 6.30027 6.12184C7.00127 6.49235 7.86645 6.51962 8.59248 6.10045C9.31852 5.68128 9.7275 4.91837 9.75713 4.12602C9.77048 3.76889 9.80366 3.61827 9.84368 3.52165C9.97054 3.21536 10.2139 2.97202 10.5202 2.84515Z" fill="#98A2B3"/>
</svg>
