<svg width="20" height="20" viewBox="0 0 20 20" fill="none" xmlns="http://www.w3.org/2000/svg">
<path fill-rule="evenodd" clip-rule="evenodd" d="M9.4627 1.48009C9.803 1.31784 10.1983 1.31784 10.5386 1.48009C10.8328 1.62035 10.995 1.86388 11.0768 1.99748C11.1614 2.1356 11.2482 2.31155 11.3328 2.48304C11.3371 2.4918 11.3414 2.50055 11.3457 2.50928L13.1292 6.12243L17.1476 6.70977C17.3368 6.73738 17.5308 6.76571 17.6883 6.80357C17.8406 6.84019 18.1222 6.9194 18.3463 7.15594C18.6055 7.42957 18.7274 7.80558 18.6781 8.17928C18.6354 8.50231 18.4539 8.73168 18.352 8.85071C18.2468 8.97373 18.1063 9.11055 17.9693 9.2439L15.0628 12.0748L15.7486 16.0734C15.7809 16.2619 15.8142 16.4553 15.827 16.6168C15.8393 16.773 15.8513 17.0654 15.6957 17.3519C15.5157 17.6832 15.1958 17.9156 14.8251 17.9843C14.5046 18.0437 14.2302 17.9419 14.0855 17.8819C13.9359 17.8198 13.7622 17.7284 13.5929 17.6394L10.0007 15.7503L6.40845 17.6394C6.23915 17.7284 6.06547 17.8198 5.91585 17.8819C5.77115 17.9419 5.49675 18.0437 5.17624 17.9843C4.80552 17.9156 4.48562 17.6832 4.30566 17.3519C4.15007 17.0654 4.16203 16.773 4.17439 16.6168C4.18718 16.4554 4.22039 16.2619 4.25277 16.0734L4.93857 12.0748L2.05301 9.26432C2.04605 9.25753 2.03907 9.25073 2.03208 9.24393C1.89511 9.11057 1.75456 8.97374 1.6493 8.85071C1.54746 8.73168 1.36593 8.50231 1.32327 8.17928C1.27392 7.80558 1.39584 7.42957 1.65508 7.15594C1.87917 6.9194 2.16076 6.84019 2.31306 6.80357C2.4705 6.76571 2.66459 6.73738 2.85375 6.70977C2.86341 6.70836 2.87305 6.70696 2.88267 6.70555L6.87212 6.12243L8.65561 2.50928C8.65992 2.50055 8.66423 2.4918 8.66856 2.48304C8.75316 2.31155 8.83997 2.1356 8.92453 1.99748C9.00633 1.86388 9.16852 1.62035 9.4627 1.48009ZM6.78594 6.29498C6.78582 6.29518 6.78583 6.29518 6.78594 6.29498V6.29498ZM7.06282 6.09365C7.06305 6.0936 7.06305 6.0936 7.06282 6.09365V6.09365ZM15.031 11.8843C15.031 11.8841 15.031 11.8841 15.031 11.8843V11.8843ZM10.0007 3.54976L8.32789 6.93862C8.32469 6.9451 8.32105 6.95265 8.31695 6.96113C8.27724 7.04334 8.19503 7.21356 8.06464 7.3539C7.95459 7.47235 7.82259 7.56833 7.67597 7.63651C7.50228 7.71728 7.31501 7.74302 7.22456 7.75545C7.21523 7.75673 7.20692 7.75787 7.19977 7.75892L3.45768 8.30588L6.16426 10.9421C6.16944 10.9471 6.1755 10.9529 6.18232 10.9595C6.24836 11.0227 6.3851 11.1536 6.47841 11.3212C6.55718 11.4627 6.60771 11.6181 6.6272 11.7788C6.65029 11.9692 6.61668 12.1555 6.60046 12.2455C6.59878 12.2548 6.59729 12.2631 6.59607 12.2702L5.95749 15.9934L9.3025 14.2343C9.3089 14.231 9.31629 14.227 9.32461 14.2225C9.40514 14.1793 9.57191 14.0898 9.76011 14.0528C9.91897 14.0217 10.0824 14.0217 10.2412 14.0528C10.4294 14.0898 10.5962 14.1793 10.6767 14.2225C10.6851 14.227 10.6924 14.231 10.6988 14.2343L14.0439 15.9934L13.4053 12.2702C13.404 12.2631 13.4026 12.2548 13.4009 12.2455C13.3847 12.1555 13.3511 11.9692 13.3741 11.7788C13.3936 11.6181 13.4442 11.4627 13.5229 11.3212C13.6162 11.1536 13.753 11.0227 13.819 10.9595C13.8258 10.9529 13.8319 10.9471 13.8371 10.9421L16.5437 8.30588L12.8016 7.75892C12.7944 7.75787 12.7861 7.75673 12.7768 7.75545C12.6863 7.74302 12.4991 7.71728 12.3254 7.63651C12.1788 7.56833 12.0468 7.47235 11.9367 7.3539C11.8063 7.21356 11.7241 7.04334 11.6844 6.96113C11.6803 6.95265 11.6767 6.9451 11.6735 6.93862L10.0007 3.54976Z" fill="#98A2B3"/>
</svg>
