<svg width="44" height="45" viewBox="0 0 44 45" fill="none" xmlns="http://www.w3.org/2000/svg">
<path d="M40.1836 10.1179V17.625C40.1845 20.4616 39.6261 23.2706 38.5404 25.8913C37.4546 28.5119 35.8628 30.8929 33.8561 32.8981H14.8753L21.2047 26.5659L30.5168 31.2221C33.0095 32.4702 33.6928 31.1358 33.8542 29.9384V15.9115C33.854 15.2778 33.9787 14.6503 34.2212 14.0648C34.4637 13.4794 34.8193 12.9475 35.2676 12.4995L39.1043 8.66531C35.6068 4.34187 30.6017 1.50294 25.0957 0.719515C19.5896 -0.0639048 13.9911 1.26631 9.42619 4.4426H17.0996C19.9371 4.44235 22.7469 5.00094 25.3685 6.08645C27.9902 7.17197 30.3723 8.76316 32.3788 10.7692V29.7507L26.0494 23.4242L30.7064 14.1117C31.1343 13.2559 31.2582 12.6103 31.185 12.1336C31.0517 11.2102 30.2071 10.8761 29.4225 10.7729H15.3858C14.7519 10.7728 14.1243 10.6477 13.5387 10.4049C12.9532 10.1621 12.4213 9.80631 11.9734 9.35784L8.08222 5.4598C3.79173 8.96447 0.981511 13.9585 0.212857 19.4443C-0.555797 24.9302 0.773702 30.504 3.9358 35.0526V27.5268C3.9332 24.6902 4.48988 21.8809 5.57401 19.2595C6.65813 16.6382 8.24844 14.2563 10.254 12.2499H29.2366L22.9091 18.5765L13.5933 13.9202C11.1005 12.6722 10.4154 14.0066 10.2558 15.2039V29.2309C10.2552 30.5108 9.74609 31.7381 8.84055 32.6428L5.00573 36.4789C8.49268 40.7148 13.4364 43.4956 18.8676 44.2761C24.2989 45.0566 29.8258 43.7804 34.3647 40.6979H27.0086C21.2786 40.6975 15.7834 38.4218 11.7312 34.3713V15.3916L18.0588 21.7182L13.4018 31.0307C12.9738 31.8865 12.8499 32.5321 12.9213 33.0088C13.0545 33.934 13.8992 34.2662 14.6876 34.3694H28.7129C29.3474 34.3694 29.9757 34.4943 30.5619 34.7371C31.148 34.9799 31.6806 35.3358 32.1292 35.7845L35.8983 39.5531C40.168 36.0735 42.977 31.1193 43.7705 25.6694C44.5639 20.2194 43.284 14.6701 40.1836 10.1179Z" fill="url(#paint0_linear_29404_129887)"/>
<defs>
<linearGradient id="paint0_linear_29404_129887" x1="35.033" y1="38.2956" x2="16.0051" y2="15.2367" gradientUnits="userSpaceOnUse">
<stop stop-color="#8B85FF"/>
<stop offset="0.99" stop-color="#49DFBA"/>
</linearGradient>
</defs>
</svg>
